<svg width="20" height="20" viewBox="0 0 20 20" fill="none" xmlns="http://www.w3.org/2000/svg">
  <path fill-rule="evenodd" clip-rule="evenodd" d="M3.5 5C3.17 4.46 3 3.8 3 3c0-1.58 1.19-3 3-3s3.27 1.21 4 3.11C10.73 1.21 12.19 0 14 0s3 1.42 3 3c0 .8-.17 1.46-.5 2H18a2 2 0 0 1 2 2v2a2 2 0 0 1-2 2v7a2 2 0 0 1-2 2H4a2 2 0 0 1-2-2v-7a2 2 0 0 1-2-2V7c0-1.1.9-2 2-2h1.5ZM9 7H2v2h7V7Zm9 2h-7V7h7v2Zm-9 9v-7H4v7h5Zm7 0h-5v-7h5v7ZM6 2c-.62 0-1 .45-1 1 0 1.25 1.02 1.85 3.43 1.97C8.16 3.11 7.16 2 6 2Zm5.5 2.97C11.77 3.11 12.77 2 13.93 2c.62 0 1 .45 1 1 0 1.25-1.02 1.85-3.43 1.97Z" fill="#9564AA"/>
</svg>
